<?xml version="1.0" encoding="utf-8"?>
<!-- Generator: Adobe Illustrator 21.0.2, SVG Export Plug-In . SVG Version: 6.00 Build 0)  -->
<svg version="1.1" id="Layer_1" xmlns="http://www.w3.org/2000/svg" xmlns:xlink="http://www.w3.org/1999/xlink" x="0px" y="0px"
	 width="271px" height="271.7px" viewBox="0 0 271 271.7" style="enable-background:new 0 0 271 271.7;" xml:space="preserve">
<path style="fill:#518AEB;stroke:#000000;stroke-miterlimit:10;" d="M1.6,215.8c0,0,0.4-70,0.8-74.8c0.4-4.9-0.7-13.2,7.1-14.2
	c11.9-1.5,14.7,3.1,18.9,13.4c3.9,9.4,20.1,2.5,22-4.7c2.3-8.9,7.8-42.1,0-54.3C43,69.5,33.6,69.8,29.9,75.6
	c-3.4,5.4-5,16.4-15,15.7C5.2,90.7,1.5,88.6,0.8,72.5c-0.7-16.5,0-70.9,0-70.9s73.2,0,78,0c4.7,0,13.4,7.1,12.6,11.8
	s-3.9,11.8-11,13.4c-7.1,1.6-14.1,11.9-5.5,18.9c7.9,6.4,38,21.6,62.2,4.7c23.3-16.2-3-25.1-6.3-26c-2.2-0.6-12.5-14.9,0.8-20.5
	c10.6-4.4,83.5-3.4,84.3-3.1c0,0,0,73.2,0,75.6c0,2.4,1.6,14.2,11.8,14.2s13.4-7.1,14.2-11s9.2-14.8,18.1-3.9
	c8.5,10.3,13.7,29.7,8.7,47.2c-4.5,15.8-8.4,18.1-10.2,20.5c-0.8,1-10.3,6.4-15.7-0.8c-5-6.6-7.1-16.5-13.4-15.7
	c-6.3,0.8-13.4,0.8-13.4,8.7s0,80.3,0,80.3s-70.1-0.8-75.6,0c-5.5,0.8-15.7,3.1-14.2,12.6c1.6,9.4,4.7,11,9.4,12.6s15,8.7,7.1,17.3
	c-7.9,8.7-19.7,14.2-33.9,12.6c-14.2-1.6-36.2-6.3-37-15.7c-0.8-9.4,0-11.8,11-15.7s7.1-18.9,3.9-20.5c-1.6-0.8-6.3-2.4-12.6-2.4
	C67.7,216.6,1.6,215.8,1.6,215.8z"/>
<rect x="73.5" y="38.6" style="fill:none;" width="101.6" height="126.9"/>
<text transform="matrix(1 0 0 1 73.5061 161.7451)" style="font-family:'ProductSans-Regular'; font-size:172px;">g</text>
</svg>
