<?xml version="1.0" encoding="utf-8"?>
<!-- Generator: Adobe Illustrator 21.0.2, SVG Export Plug-In . SVG Version: 6.00 Build 0)  -->
<svg version="1.1" id="Layer_1" xmlns="http://www.w3.org/2000/svg" xmlns:xlink="http://www.w3.org/1999/xlink" x="0px" y="0px"
	 width="271.7px" height="270.7px" viewBox="0 0 271.7 270.7" style="enable-background:new 0 0 271.7 270.7;" xml:space="preserve"
	>
<path style="fill:#62B659;stroke:#000000;stroke-miterlimit:10;" d="M215.8,269.1c0,0-70.1,1.6-74.8,0.8c-4.7-0.8-14.2-3.9-14.2-11
	c0-7.1,3.9-11.8,15-16.5c11-4.7,2.4-18.9-6.3-22c-8.7-3.1-44.1-10.2-54.3,0s-11,18.1-5.5,21.3c5.5,3.1,16.4,4.2,15.7,14.2
	c-0.7,9.8-2.8,13.5-18.9,14.2c-16.5,0.7-70.9,0-70.9,0s0.7-73.3,0-78c-0.9-6.2,5.1-10.3,11-11c5.4-0.6,10.2,1,13.4,10.2
	c2.4,6.9,12.1,13.7,19.7,5.5c5.4-5.8,20.4-33,3.9-62.2c-13.3-23.7-23.8,4.2-23.6,5.5c0.4,2.3-16.5,12.5-22-0.8
	c-4.4-10.6-3.4-83.5-3.1-84.3c0,0,73.2,0,75.6,0c2.4,0,14.2-1.6,14.2-11.8s-7.1-13.4-11-14.2s-15-9.5-3.9-18.1
	c10.3-8,29.7-13.1,47.2-8.7c15.9,4,18.7,7.9,20.5,10.2c1.1,1.4,7.1,13.4-0.8,15.7s-16.5,7.1-15.7,13.4c0.8,6.3,0.8,13.4,8.7,13.4
	s80.3,0,80.3,0s-0.8,70.1,0,75.6c0.8,5.5,3.1,15.7,12.6,14.2c9.4-1.6,11-4.7,12.6-9.4c1.6-4.7,8.7-15,17.3-7.1
	c8.7,7.9,14.2,19.7,12.6,33.9c-1.6,14.2-6.3,36.2-15.7,37c-9.4,0.8-11.8,0-15.7-11c-3.9-11-18.9-7.1-20.5-3.9
	c-0.8,1.6-2.4,6.3-2.4,12.6S215.8,269.1,215.8,269.1z"/>
<rect x="96.1" y="70.7" style="fill:none;" width="37.6" height="126.9"/>
<text transform="matrix(1 0 0 1 96.0964 193.8375)" style="font-family:'ProductSans-Regular'; font-size:172px;">l</text>
</svg>
